<?xml version="1.0" standalone="no"?>
<!DOCTYPE svg PUBLIC "-//W3C//DTD SVG 20010904//EN"
 "http://www.w3.org/TR/2001/REC-SVG-20010904/DTD/svg10.dtd">
<svg version="1.0" xmlns="http://www.w3.org/2000/svg"
 width="320.000000pt" height="320.000000pt" viewBox="0 0 320.000000 320.000000"
 preserveAspectRatio="xMidYMid meet">

<g transform="translate(0.000000,320.000000) scale(0.100000,-0.100000)"
fill="#000000" stroke="none">
<path d="M2160 2702 l0 -117 -178 -1 c-205 -1 -314 -17 -471 -70 -153 -51
-260 -111 -500 -279 -359 -252 -478 -311 -743 -366 l-108 -22 0 -249 0 -248
23 -4 c298 -60 449 -125 712 -312 341 -241 449 -303 621 -357 139 -44 253 -59
446 -61 l178 -1 0 -112 c0 -69 4 -113 10 -113 15 0 862 491 857 497 -11 10
-851 493 -859 493 -4 0 -8 -58 -8 -130 l0 -130 -142 0 c-158 0 -240 10 -338
41 -96 31 -174 76 -385 224 -104 73 -216 149 -247 170 -32 21 -58 39 -58 41 0
1 26 18 58 38 31 19 147 98 257 176 210 149 337 218 445 246 42 10 129 18 248
21 l182 5 0 -131 c0 -72 3 -131 8 -131 15 1 845 486 846 495 0 9 -83 59 -631
376 l-223 128 0 -117z"/>
</g>
</svg>
